<?xml version="1.0" encoding="UTF-8"?>
<svg xmlns="http://www.w3.org/2000/svg" xmlns:xlink="http://www.w3.org/1999/xlink" width="256pt" height="256pt" viewBox="0 0 256 256" version="1.1">
<g id="surface1">
<path style=" stroke:none;fill-rule:nonzero;fill:rgb(33.333333%,100%,60%);fill-opacity:1;" d="M 127.976562 0.03125 C 93.605469 0.03125 62.03125 13.128906 37.671875 37.484375 C 13.316406 61.839844 0.21875 93.417969 0.21875 127.789062 C 0.21875 162.160156 13.316406 193.734375 37.671875 218.089844 C 58.125 238.542969 83.6875 251.058594 112.617188 254.78125 C 123.976562 256.246094 141.390625 255.503906 153.804688 253.03125 C 198.496094 244.125 236.679688 209.507812 250.0625 165.765625 C 264.101562 119.871094 252.058594 71.261719 218.28125 37.484375 C 193.921875 13.128906 162.347656 0.03125 127.976562 0.03125 Z M 126.8125 10.050781 C 145.300781 9.882812 163.777344 14.070312 180.617188 22.507812 C 203.695312 34.070312 221.695312 52.066406 233.257812 75.148438 C 249.878906 108.324219 249.878906 147.253906 233.257812 180.429688 C 227.457031 192.003906 221.679688 200.144531 212.476562 209.703125 C 193.003906 229.929688 167.222656 242.261719 138.546875 245.0625 C 117.160156 247.152344 95.089844 242.964844 75.335938 233.066406 C 63.757812 227.269531 55.621094 221.492188 46.0625 212.289062 C 9.191406 176.796875 -0.304688 121.058594 22.695312 75.148438 C 36.523438 47.550781 60.273438 26.671875 89.363281 16.546875 C 101.507812 12.320312 114.164062 10.167969 126.8125 10.050781 Z M 126.8125 10.050781 "/>
<path style=" stroke:none;fill-rule:nonzero;fill:rgb(33.333333%,100%,60%);fill-opacity:1;" d="M 180.140625 69.15625 C 165.546875 54.566406 146.152344 46.53125 125.519531 46.53125 C 99.101562 46.53125 75.75 59.871094 61.8125 80.160156 C 61.75 80.238281 61.671875 80.296875 61.613281 80.382812 C 60.875 81.449219 60.175781 82.558594 59.515625 83.695312 C 52.476562 95.238281 48.394531 108.765625 48.289062 123.21875 C 48.28125 123.433594 48.273438 123.628906 48.273438 123.777344 C 48.273438 124.992188 48.308594 126.210938 48.367188 127.429688 C 48.40625 128.210938 48.472656 128.984375 48.53125 129.757812 C 48.5625 130.15625 48.582031 130.546875 48.621094 130.945312 C 48.714844 131.945312 48.832031 132.933594 48.964844 133.917969 C 48.984375 134.082031 49.003906 134.246094 49.027344 134.410156 C 49.171875 135.472656 49.347656 136.53125 49.539062 137.582031 C 49.550781 137.648438 49.558594 137.710938 49.570312 137.773438 C 49.570312 137.785156 49.578125 137.800781 49.578125 137.8125 C 56.199219 173.722656 87.722656 201.019531 125.519531 201.019531 C 129.542969 201.019531 133.5 200.707031 137.359375 200.109375 C 137.378906 200.109375 137.394531 200.109375 137.40625 200.105469 C 138.621094 199.917969 139.820312 199.699219 141.015625 199.457031 C 141.207031 199.417969 141.398438 199.367188 141.589844 199.328125 C 142.582031 199.113281 143.574219 198.890625 144.554688 198.640625 C 145.050781 198.515625 145.542969 198.367188 146.039062 198.234375 C 146.679688 198.054688 147.332031 197.878906 147.96875 197.679688 C 148.652344 197.476562 149.324219 197.246094 150 197.019531 C 150.410156 196.882812 150.824219 196.75 151.230469 196.601562 C 152.082031 196.300781 152.921875 195.980469 153.761719 195.648438 C 153.945312 195.574219 154.136719 195.503906 154.320312 195.425781 C 179.539062 185.253906 198.1875 162.148438 202.015625 134.371094 C 202.039062 134.207031 202.054688 134.046875 202.078125 133.886719 C 202.203125 132.933594 202.320312 131.980469 202.410156 131.019531 C 202.457031 130.511719 202.488281 129.992188 202.527344 129.480469 C 202.574219 128.816406 202.632812 128.152344 202.664062 127.484375 C 202.722656 126.257812 202.757812 125.019531 202.757812 123.78125 C 202.757812 123.777344 202.757812 123.777344 202.757812 123.777344 C 202.761719 103.144531 194.726562 83.746094 180.140625 69.15625 Z M 58.699219 131.730469 C 58.5625 130.582031 58.457031 129.429688 58.378906 128.285156 C 58.367188 128.082031 58.34375 127.878906 58.332031 127.671875 C 58.257812 126.371094 58.210938 125.078125 58.210938 123.789062 C 58.210938 123.785156 58.210938 123.78125 58.210938 123.777344 C 58.214844 119.609375 60.757812 101.191406 68.171875 88.59375 C 68.253906 88.453125 68.347656 88.320312 68.433594 88.179688 L 103.066406 88.179688 C 107.726562 88.179688 111.515625 91.972656 111.515625 96.628906 C 111.515625 101.285156 107.722656 105.074219 103.066406 105.074219 L 81.761719 105.074219 C 79.015625 105.074219 76.792969 107.300781 76.792969 110.042969 C 76.792969 112.789062 79.015625 115.011719 81.761719 115.011719 C 86.417969 115.011719 90.210938 118.804688 90.210938 123.460938 C 90.210938 128.117188 86.417969 131.90625 81.761719 131.90625 L 58.722656 131.90625 C 58.714844 131.851562 58.707031 131.789062 58.699219 131.730469 Z M 130.949219 190.839844 C 129.15625 190.988281 127.347656 191.082031 125.519531 191.082031 C 94.667969 191.082031 68.613281 170.207031 60.695312 141.847656 L 81.761719 141.847656 C 84.710938 141.847656 87.492188 141.132812 89.960938 139.894531 C 90.234375 139.980469 90.519531 140.039062 90.820312 140.039062 C 92.285156 140.039062 93.472656 138.921875 93.613281 137.496094 C 97.605469 134.121094 100.148438 129.085938 100.148438 123.460938 C 100.148438 120.414062 99.40625 117.542969 98.089844 115.011719 L 103.070312 115.011719 C 106.761719 115.011719 110.203125 113.90625 113.085938 112.023438 C 113.601562 112.703125 114.40625 113.148438 115.328125 113.148438 C 116.882812 113.148438 118.144531 111.886719 118.144531 110.328125 C 118.144531 109.523438 117.804688 108.804688 117.269531 108.292969 C 119.882812 105.113281 121.453125 101.050781 121.453125 96.625 C 121.453125 92.457031 120.042969 88.617188 117.695312 85.53125 C 118.425781 85.023438 118.902344 84.175781 118.902344 83.21875 C 118.902344 81.664062 117.640625 80.398438 116.085938 80.398438 C 115.097656 80.398438 114.234375 80.910156 113.730469 81.675781 C 110.722656 79.523438 107.042969 78.238281 103.070312 78.238281 L 76.007812 78.238281 C 88.316406 64.867188 105.953125 56.46875 125.519531 56.46875 C 143.496094 56.46875 160.398438 63.46875 173.109375 76.179688 C 177.847656 80.914062 181.785156 86.234375 184.871094 91.972656 L 169.042969 91.972656 C 158.90625 91.976562 150.660156 100.222656 150.660156 110.359375 C 150.660156 113.402344 151.402344 116.273438 152.71875 118.804688 L 143.296875 118.804688 C 133.160156 118.804688 124.914062 127.050781 124.914062 137.191406 C 124.917969 147.324219 133.164062 155.574219 143.300781 155.578125 L 148.789062 155.578125 C 153.449219 155.578125 157.238281 159.367188 157.238281 164.023438 C 157.238281 168.613281 153.511719 172.394531 148.933594 172.472656 L 148.753906 172.472656 C 148.589844 172.472656 148.429688 172.484375 148.277344 172.5 C 138.652344 173.054688 130.957031 181.121094 130.949219 190.839844 Z M 192.742188 126.933594 C 192.71875 127.417969 192.683594 127.90625 192.644531 128.390625 C 192.609375 128.90625 192.578125 129.421875 192.53125 129.9375 C 192.46875 130.625 192.390625 131.304688 192.304688 131.984375 C 192.273438 132.226562 192.246094 132.472656 192.210938 132.714844 C 188.898438 157.015625 172.296875 177.800781 149.664062 186.585938 C 149.480469 186.65625 149.292969 186.734375 149.109375 186.800781 C 148.570312 187.007812 148.027344 187.191406 147.480469 187.382812 C 147.007812 187.546875 146.53125 187.710938 146.054688 187.867188 C 145.625 188.003906 145.191406 188.132812 144.757812 188.261719 C 144.148438 188.445312 143.539062 188.621094 142.921875 188.785156 C 142.550781 188.886719 142.1875 188.980469 141.816406 189.074219 C 141.558594 189.136719 141.296875 189.191406 141.042969 189.253906 C 141.792969 185.414062 145.1875 182.46875 149.367188 182.410156 C 149.53125 182.40625 149.691406 182.398438 149.847656 182.382812 C 159.472656 181.828125 167.175781 173.753906 167.175781 164.027344 C 167.175781 153.890625 158.925781 145.640625 148.789062 145.640625 L 143.300781 145.640625 C 138.640625 145.640625 134.851562 141.847656 134.851562 137.191406 C 134.851562 132.535156 138.640625 128.746094 143.296875 128.746094 L 169.039062 128.746094 C 171.785156 128.746094 174.007812 126.523438 174.007812 123.777344 C 174.007812 121.035156 171.785156 118.808594 169.039062 118.808594 C 164.382812 118.808594 160.59375 115.019531 160.59375 110.363281 C 160.59375 105.707031 164.386719 101.914062 169.042969 101.914062 L 189.148438 101.914062 C 191.664062 109.554688 192.824219 118.296875 192.820312 123.777344 C 192.824219 124.832031 192.792969 125.886719 192.742188 126.933594 Z M 141.347656 86.042969 C 142.90625 86.042969 144.167969 84.777344 144.167969 83.222656 C 144.167969 81.667969 142.90625 80.402344 141.347656 80.402344 C 139.792969 80.402344 138.53125 81.667969 138.53125 83.222656 C 138.53125 84.777344 139.792969 86.042969 141.347656 86.042969 Z M 141.890625 161.292969 C 140.335938 161.292969 139.074219 162.554688 139.074219 164.113281 C 139.074219 165.667969 140.335938 166.929688 141.890625 166.929688 C 143.449219 166.929688 144.710938 165.667969 144.710938 164.113281 C 144.710938 162.554688 143.449219 161.292969 141.890625 161.292969 Z M 116.082031 161.292969 C 114.527344 161.292969 113.265625 162.554688 113.265625 164.113281 C 113.265625 165.667969 114.527344 166.929688 116.082031 166.929688 C 117.640625 166.929688 118.902344 165.667969 118.902344 164.113281 C 118.902344 162.554688 117.640625 161.292969 116.082031 161.292969 Z M 90.058594 161.292969 C 88.503906 161.292969 87.242188 162.554688 87.242188 164.113281 C 87.242188 165.667969 88.503906 166.929688 90.058594 166.929688 C 91.617188 166.929688 92.878906 165.667969 92.878906 164.113281 C 92.878906 162.554688 91.617188 161.292969 90.058594 161.292969 Z M 116.734375 134.402344 C 115.179688 134.402344 113.917969 135.664062 113.917969 137.222656 C 113.917969 138.777344 115.179688 140.039062 116.734375 140.039062 C 118.292969 140.039062 119.554688 138.777344 119.554688 137.222656 C 119.554688 135.664062 118.292969 134.402344 116.734375 134.402344 Z M 140.589844 113.148438 C 142.148438 113.148438 143.410156 111.886719 143.410156 110.332031 C 143.410156 108.773438 142.148438 107.511719 140.589844 107.511719 C 139.035156 107.511719 137.769531 108.773438 137.769531 110.332031 C 137.769531 111.886719 139.03125 113.148438 140.589844 113.148438 Z M 166.613281 86.042969 C 168.167969 86.042969 169.433594 84.777344 169.433594 83.222656 C 169.433594 81.667969 168.171875 80.402344 166.613281 80.402344 C 165.054688 80.402344 163.792969 81.667969 163.792969 83.222656 C 163.792969 84.777344 165.058594 86.042969 166.613281 86.042969 Z M 166.613281 86.042969 "/>
</g>
</svg>
